<?xml version="1.0" encoding="utf-8"?>
<!-- Generator: Adobe Illustrator 26.0.1, SVG Export Plug-In . SVG Version: 6.00 Build 0)  -->
<svg version="1.1" id="圖層_1" xmlns="http://www.w3.org/2000/svg" xmlns:xlink="http://www.w3.org/1999/xlink" x="0px" y="0px"
	 viewBox="0 0 228.56 199.96" style="enable-background:new 0 0 228.56 199.96;" xml:space="preserve">
<style type="text/css">
	.st0{fill:#FED400;}
	.st1{fill:#FFFFFF;}
</style>
<path id="XMLID_00000166660375076109199720000008263566220022907278_" class="st0" d="M33.33,173.38c0,0,20.34,9.12,41.85,8.91
	c0.4,0,1.62-0.02,1.62-0.02s1.19,0.02,1.6,0.02c21.5,0.21,41.84-8.91,41.84-8.91c9.75,1.49,15.78-6.99,15.78-6.99l-2.66-20.34
	c-1.7-18.43-18.64-21.61-22.03-22.67c-3.39-1.06-15.68-4.45-17.37-8.27c-0.57-1.27-2.34-4.23,2.86-14.15
	c2.36-7.19,2.61-15.17,2.47-20.15c2.95,0.7,3.1-1.67,3.1-1.67c3.1-13.52-3.15-16.07-4.45-16.47c-1.3-0.39-1.74,1.37-1.74,1.37
	l0.01,0.34c-9.81-28.9-34.8-21.29-37.7-20.29c0.05-0.01-0.23,0.13-1.84,0.81c-1.66,0.6-1.95,0.7-1.9,0.67
	C52,46.79,28.45,58.31,41.06,86.15l-0.22-0.25c0,0-1.53-1-2.2,0.19c-0.67,1.18-3.49,7.3,8.01,15.06c0,0,1.73,1.64,3.41-0.9
	c3.29,3.73,8.95,9.4,15.58,13.02c1.15,2.38-3.06,3.22-4.52,4.12c-3.56,2.19-15.5,4.92-18.89,5.98s-20.34,4.24-22.03,22.67
	l-2.65,20.34C17.54,166.39,23.58,174.87,33.33,173.38z"/>
<g>
	<g>
		<path class="st0" d="M108.57,108.46l10.83-13.04h-10.32V90.7h17.6v4.5l-10.25,12.52h10.99l-0.69,4.72h-18.15V108.46z"/>
	</g>
</g>
<g>
	<g>
		<path class="st0" d="M137.37,92.89l15.2-18.31h-14.49v-6.63h24.71v6.31l-14.4,17.57h15.42l-0.98,6.63h-25.48v-5.57H137.37z"/>
	</g>
</g>
<g>
	<g>
		<path class="st0" d="M169.62,74.36l20.32-24.49h-19.37v-8.86h33.04v8.45l-19.24,23.49H205l-1.31,8.86h-34.07L169.62,74.36
			L169.62,74.36z"/>
	</g>
</g>
<path class="st0" d="M398.59,114.03c0,0,7.57,3.07,9.63-0.57c2.06-3.65,3.43-7.89,2.41-15.26c-1.02-7.37,3.41-17.49,10.3-18.8
	c7.42-1.41,13.52-0.55,19.53,7.97s2.8,26.92-9.48,31.82C418.69,124.11,405.03,122.52,398.59,114.03z"/>
<path class="st1" d="M418.48,113.69c2.19-1.58,2.63-0.1,8.3-5.96c7.69-7.96,7.45-15.25,10.42-14.17c2.97,1.08,2.96,14.32-3.33,19.63
	C426.78,119.15,413.05,117.63,418.48,113.69z"/>
<ellipse transform="matrix(0.9593 -0.2824 0.2824 0.9593 -7.3166 125.843)" class="st1" cx="432.89" cy="88.3" rx="2.48" ry="3.44"/>
</svg>
