<?xml version="1.0" encoding="utf-8"?>
<!-- Generator: Adobe Illustrator 26.0.1, SVG Export Plug-In . SVG Version: 6.00 Build 0)  -->
<svg version="1.1" id="圖層_1" xmlns="http://www.w3.org/2000/svg" xmlns:xlink="http://www.w3.org/1999/xlink" x="0px" y="0px"
	 viewBox="0 0 1447.52 1447.52" style="enable-background:new 0 0 1447.52 1447.52;" xml:space="preserve">
<style type="text/css">
	.st0{fill:#FED400;}
	.st1{fill:#00A8A0;}
</style>
<g id="bubble">
	<path id="XMLID_276_" class="st0" d="M629.88,504.86l-28.61,136.57c0,0,71.98-42.58,110.14-64.53
		c34.27,18.59,73.49,29.13,115.21,29.13c133.74,0,242.16-108.43,242.16-242.16S960.36,121.71,826.62,121.71
		c-133.74,0-242.16,108.43-242.16,242.16C584.53,416.47,601.34,465.11,629.88,504.86z M903.35,363.41
		c0-15.42,12.46-27.88,27.88-27.88c15.42,0,27.88,12.46,27.88,27.88c0,15.42-12.46,27.88-27.88,27.88
		C915.8,391.29,903.35,378.83,903.35,363.41z M807.71,363.41c0-15.42,12.46-27.88,27.88-27.88c15.42,0,27.88,12.46,27.88,27.88
		c0,15.42-12.46,27.88-27.88,27.88C820.17,391.29,807.71,378.83,807.71,363.41z M712.07,363.41c0-15.42,12.46-27.88,27.88-27.88
		c15.42,0,27.88,12.46,27.88,27.88c0,15.42-12.46,27.88-27.88,27.88C724.53,391.29,712.07,378.83,712.07,363.41z"/>
</g>
<path id="XMLID_2_" class="st0" d="M165.06,1085.54c0,0,99.13,44.42,203.93,43.44c1.98,0,7.91-0.07,7.91-0.07s5.8,0.07,7.78,0.07
	c104.8,1.05,203.87-43.44,203.87-43.44c47.52,7.25,76.85-34.08,76.85-34.08l-12.98-99.13c-8.24-89.84-90.83-105.33-107.37-110.47
	c-16.54-5.14-76.39-21.69-84.63-40.27c-2.77-6.2-2.97-17.93-2.04-30.78c23.6-28.34,39.02-64.07,47.33-86.94
	c12.13,8.5,17.07-2.04,17.07-2.04c38.23-55.76,14.43-78.44,9.29-82.59c-5.14-4.15-10.35,3.1-10.35,3.1l-0.53,1.58
	c7.25-148.57-119.56-158.78-134.53-159.51c0.26,0.07-1.32,0.13-9.76,0.4c-8.63-0.2-10.08-0.33-9.82-0.4
	c-14.63,0.66-141.97,10.68-134.66,159.51l-0.53-1.58c0,0-5.14-7.25-10.35-3.1c-5.14,4.15-28.94,26.83,9.29,82.59
	c0,0,4.94,10.55,17.07,2.04c8.24,22.81,23.73,58.6,47.32,86.94c0.92,12.85,0.73,24.65-2.04,30.78
	c-8.24,18.59-68.15,35.13-84.63,40.27c-16.54,5.21-99.13,20.63-107.37,110.47l-12.92,99.13
	C88.14,1051.47,117.61,1092.79,165.06,1085.54z"/>
<path id="XMLID_00000133510771969566321270000008133105901451217324_" class="st0" d="M770.01,1282.82c0,0,99.13,44.42,203.93,43.44
	c1.98,0,7.91-0.07,7.91-0.07s5.8,0.07,7.78,0.07c104.8,1.05,203.87-43.44,203.87-43.44c47.52,7.25,76.85-34.08,76.85-34.08
	l-12.98-99.13c-8.24-89.84-90.83-105.33-107.37-110.47c-16.54-5.14-76.39-21.69-84.63-40.27c-2.77-6.2-2.97-17.93-2.04-30.78
	c23.6-28.34,39.02-64.07,47.32-86.94c12.13,8.5,17.07-2.04,17.07-2.04c38.23-55.76,14.43-78.44,9.29-82.59
	c-5.14-4.15-10.35,3.1-10.35,3.1l-0.53,1.58c7.25-148.57-119.56-158.78-134.53-159.51c0.26,0.07-1.32,0.13-9.76,0.4
	c-8.63-0.2-10.08-0.33-9.82-0.4c-14.63,0.66-141.97,10.68-134.66,159.51l-0.53-1.58c0,0-5.14-7.25-10.35-3.1
	c-5.14,4.15-28.94,26.83,9.29,82.59c0,0,4.94,10.55,17.07,2.04c8.24,22.81,23.73,58.6,47.32,86.94c0.92,12.85,0.73,24.65-2.04,30.78
	c-8.24,18.59-68.15,35.13-84.63,40.27c-16.54,5.21-99.13,20.63-107.37,110.47l-12.92,99.13
	C693.15,1248.74,722.55,1290,770.01,1282.82z"/>
<g>
	<g>
		<path class="st1" d="M939.4,1208.07v-7.58c0-28.08,11.07-47.52,38.69-71.58c14.57-12.79,18.72-22.74,18.72-34.01
			c0-11.6-6.06-20.17-19.71-20.17c-16.94,0-22.08,12.85-23.2,30.06l-68.15-0.13c1.71-38.82,27.16-78.83,95.84-78.57
			c68.94,0.26,91.82,40.93,91.82,73.89c0,26.23-11.53,41.66-37.37,64.33c-15.75,13.91-20.04,25.71-20.04,40.27v3.49H939.4z
			 M939.4,1298.77v-70.92h76.59v70.92H939.4z"/>
	</g>
</g>
</svg>
